<svg width="78" height="73" viewBox="0 0 138 133" fill="none" xmlns="http://www.w3.org/2000/svg">
<path d="M77.5 67.0722L77.5 67.072C77.5094 59.505 80.6671 52.2452 86.2888 46.8868C91.9112 41.5277 99.5389 38.5091 107.5 38.5C115.461 38.5091 123.089 41.5277 128.711 46.8868C134.333 52.2452 137.491 59.505 137.5 67.072V67.0722C137.509 73.2522 135.392 79.2673 131.467 84.1949L131.414 84.2614L131.412 84.2685L131.333 84.3661C131.306 84.4002 131.275 84.4383 131.243 84.4792C131.179 84.5581 131.107 84.6474 131.034 84.7387C130.808 85.0194 130.579 85.3011 130.524 85.3654C130.523 85.3661 130.522 85.3667 130.522 85.3673L107.5 111.248L84.4857 85.3765L84.4834 85.374C84.4277 85.3123 84.1983 85.0295 83.967 84.7418C83.8549 84.6024 83.747 84.4676 83.6671 84.3676L83.5712 84.2476L83.5447 84.2143L83.5378 84.2056L83.536 84.2034L83.5356 84.2029L83.5355 84.2028C79.6092 79.273 77.4905 73.2551 77.5 67.0722ZM119.091 67.0721V67.0714C119.091 64.8762 118.408 62.7324 117.131 60.9113C115.855 59.0904 114.043 57.6747 111.928 56.8396C109.813 56.0046 107.487 55.7865 105.243 56.2119C102.999 56.6373 100.935 57.6879 99.3126 59.2344C97.6899 60.7811 96.5819 62.7546 96.1328 64.9069C95.6836 67.0594 95.9143 69.2902 96.7948 71.3162C97.6751 73.3419 99.164 75.0693 101.07 76.283C102.975 77.4965 105.213 78.1429 107.5 78.1429H107.501C110.566 78.1392 113.509 76.9772 115.683 74.9046C117.859 72.8313 119.087 70.015 119.091 67.0721Z" fill="#DEA232" stroke="#FEFAFA"/>
<path d="M53.28 59.152C51.744 56.336 49.632 54.192 46.944 52.72C44.256 51.248 41.12 50.512 37.536 50.512C33.568 50.512 30.048 51.408 26.976 53.2C23.904 54.992 21.504 57.552 19.776 60.88C18.048 64.208 17.184 68.048 17.184 72.4C17.184 76.88 18.048 80.784 19.776 84.112C21.568 87.44 24.032 90 27.168 91.792C30.304 93.584 33.952 94.48 38.112 94.48C43.232 94.48 47.424 93.136 50.688 90.448C53.952 87.696 56.096 83.888 57.12 79.024H34.08V68.752H70.368V80.464C69.472 85.136 67.552 89.456 64.608 93.424C61.664 97.392 57.856 100.592 53.184 103.024C48.576 105.392 43.392 106.576 37.632 106.576C31.168 106.576 25.312 105.136 20.064 102.256C14.88 99.312 10.784 95.248 7.776 90.064C4.832 84.88 3.36 78.992 3.36 72.4C3.36 65.808 4.832 59.92 7.776 54.736C10.784 49.488 14.88 45.424 20.064 42.544C25.312 39.6 31.136 38.128 37.536 38.128C45.088 38.128 51.648 39.984 57.216 43.696C62.784 47.344 66.624 52.496 68.736 59.152H53.28Z" fill="white"/>
<path d="M53.28 59.152L52.4021 59.6308L52.6864 60.152H53.28V59.152ZM19.776 60.88L18.8885 60.4192L19.776 60.88ZM19.776 84.112L18.8885 84.5728L18.892 84.5795L18.8955 84.5861L19.776 84.112ZM27.168 91.792L26.6719 92.6602L27.168 91.792ZM50.688 90.448L51.3237 91.22L51.3326 91.2125L50.688 90.448ZM57.12 79.024L58.0986 79.23L58.3524 78.024H57.12V79.024ZM34.08 79.024H33.08V80.024H34.08V79.024ZM34.08 68.752V67.752H33.08V68.752H34.08ZM70.368 68.752H71.368V67.752H70.368V68.752ZM70.368 80.464L71.3501 80.6524L71.368 80.559V80.464H70.368ZM64.608 93.424L63.8049 92.8282L64.608 93.424ZM53.184 103.024L53.6411 103.913L53.6457 103.911L53.184 103.024ZM20.064 102.256L19.5702 103.126L19.5765 103.129L19.5829 103.133L20.064 102.256ZM7.776 90.064L6.9064 90.5578L6.91106 90.5659L7.776 90.064ZM7.776 54.736L6.9084 54.2387L6.90644 54.2422L7.776 54.736ZM20.064 42.544L20.5496 43.4182L20.5533 43.4161L20.064 42.544ZM57.216 43.696L56.6613 44.5281L56.668 44.5325L57.216 43.696ZM68.736 59.152V60.152H70.1024L69.6892 58.8495L68.736 59.152ZM54.1579 58.6731C52.5347 55.6973 50.2883 53.4113 47.4243 51.8429L46.4637 53.5971C48.9757 54.9727 50.9533 56.9747 52.4021 59.6308L54.1579 58.6731ZM47.4243 51.8429C44.5659 50.2776 41.2593 49.512 37.536 49.512V51.512C40.9807 51.512 43.9461 52.2184 46.4637 53.5971L47.4243 51.8429ZM37.536 49.512C33.4119 49.512 29.7142 50.445 26.4721 52.3362L27.4799 54.0638C30.3818 52.371 33.7241 51.512 37.536 51.512V49.512ZM26.4721 52.3362C23.2276 54.2288 20.6987 56.9328 18.8885 60.4192L20.6635 61.3408C22.3093 58.1712 24.5804 55.7552 27.4799 54.0638L26.4721 52.3362ZM18.8885 60.4192C17.0755 63.9108 16.184 67.9134 16.184 72.4H18.184C18.184 68.1826 19.0205 64.5052 20.6635 61.3408L18.8885 60.4192ZM16.184 72.4C16.184 77.0094 17.0735 81.0772 18.8885 84.5728L20.6635 83.6512C19.0225 80.4908 18.184 76.7506 18.184 72.4H16.184ZM18.8955 84.5861C20.7719 88.0708 23.3657 90.771 26.6719 92.6602L27.6641 90.9238C24.6983 89.229 22.3641 86.8092 20.6565 83.6379L18.8955 84.5861ZM26.6719 92.6602C29.9806 94.5509 33.8047 95.48 38.112 95.48V93.48C34.0993 93.48 30.6274 92.6171 27.6641 90.9238L26.6719 92.6602ZM38.112 95.48C43.4132 95.48 47.8451 94.0847 51.3237 91.2199L50.0523 89.6761C47.0029 92.1873 43.0508 93.48 38.112 93.48V95.48ZM51.3326 91.2125C54.7941 88.294 57.0365 84.2748 58.0986 79.23L56.1415 78.818C55.1555 83.5012 53.1099 87.098 50.0434 89.6835L51.3326 91.2125ZM57.12 78.024H34.08V80.024H57.12V78.024ZM35.08 79.024V68.752H33.08V79.024H35.08ZM34.08 69.752H70.368V67.752H34.08V69.752ZM69.368 68.752V80.464H71.368V68.752H69.368ZM69.3859 80.2757C68.5193 84.7943 66.6629 88.976 63.8049 92.8282L65.4111 94.0198C68.4411 89.936 70.4247 85.4777 71.3501 80.6524L69.3859 80.2757ZM63.8049 92.8282C60.9571 96.6665 57.269 99.7702 52.7223 102.137L53.6457 103.911C58.443 101.414 62.3709 98.1175 65.4111 94.0198L63.8049 92.8282ZM52.7269 102.135C48.2755 104.422 43.2511 105.576 37.632 105.576V107.576C43.533 107.576 48.8765 106.362 53.6411 103.913L52.7269 102.135ZM37.632 105.576C31.3224 105.576 25.634 104.172 20.5451 101.379L19.5829 103.133C24.99 106.1 31.0136 107.576 37.632 107.576V105.576ZM20.5578 101.386C15.5288 98.5304 11.5605 94.5937 8.64094 89.5621L6.91106 90.5659C10.0075 95.9023 14.2312 100.094 19.5702 103.126L20.5578 101.386ZM8.64556 89.5702C5.79586 84.5522 4.36 78.8376 4.36 72.4H2.36C2.36 79.1464 3.86814 85.2078 6.90644 90.5578L8.64556 89.5702ZM4.36 72.4C4.36 65.9624 5.79586 60.2478 8.64556 55.2298L6.90644 54.2422C3.86814 59.5922 2.36 65.6536 2.36 72.4H4.36ZM8.64359 55.2333C11.5629 50.14 15.5282 46.2078 20.5496 43.4182L19.5784 41.6698C14.2318 44.6402 10.0051 48.836 6.90841 54.2387L8.64359 55.2333ZM20.5533 43.4161C25.6423 40.5613 31.2961 39.128 37.536 39.128V37.128C30.9759 37.128 24.9817 38.6387 19.5747 41.6719L20.5533 43.4161ZM37.536 39.128C44.9168 39.128 51.2781 40.9393 56.6613 44.528L57.7707 42.8639C52.0179 39.0287 45.2592 37.128 37.536 37.128V39.128ZM56.668 44.5325C62.0336 48.0478 65.7367 53.0061 67.7828 59.4544L69.6892 58.8495C67.5113 51.9859 63.5344 46.6402 57.764 42.8595L56.668 44.5325ZM68.736 58.152H53.28V60.152H68.736V58.152Z" fill="black"/>
<path d="M56.28 59.152C54.744 56.336 52.632 54.192 49.944 52.72C47.256 51.248 44.12 50.512 40.536 50.512C36.568 50.512 33.048 51.408 29.976 53.2C26.904 54.992 24.504 57.552 22.776 60.88C21.048 64.208 20.184 68.048 20.184 72.4C20.184 76.88 21.048 80.784 22.776 84.112C24.568 87.44 27.032 90 30.168 91.792C33.304 93.584 36.952 94.48 41.112 94.48C46.232 94.48 50.424 93.136 53.688 90.448C56.952 87.696 59.096 83.888 60.12 79.024H37.08V68.752H73.368V80.464C72.472 85.136 70.552 89.456 67.608 93.424C64.664 97.392 60.856 100.592 56.184 103.024C51.576 105.392 46.392 106.576 40.632 106.576C34.168 106.576 28.312 105.136 23.064 102.256C17.88 99.312 13.784 95.248 10.776 90.064C7.832 84.88 6.36 78.992 6.36 72.4C6.36 65.808 7.832 59.92 10.776 54.736C13.784 49.488 17.88 45.424 23.064 42.544C28.312 39.6 34.136 38.128 40.536 38.128C48.088 38.128 54.648 39.984 60.216 43.696C65.784 47.344 69.624 52.496 71.736 59.152H56.28Z" fill="#DEA232"/>
</svg>
