<svg width="270" height="60" viewBox="0 0 270 60" fill="none" xmlns="http://www.w3.org/2000/svg">
<path d="M33.2 16.08V44H27.6V25.84L20.12 44H15.88L8.36 25.84V44H2.76V16.08H9.12L18 36.84L26.88 16.08H33.2ZM37.2966 32.84C37.2966 30.6 37.7366 28.6133 38.6166 26.88C39.5232 25.1467 40.7366 23.8133 42.2566 22.88C43.8032 21.9467 45.5232 21.48 47.4166 21.48C49.0699 21.48 50.5099 21.8133 51.7366 22.48C52.9899 23.1467 53.9899 23.9867 54.7366 25V21.84H60.3766V44H54.7366V40.76C54.0166 41.8 53.0166 42.6667 51.7366 43.36C50.4832 44.0267 49.0299 44.36 47.3766 44.36C45.5099 44.36 43.8032 43.88 42.2566 42.92C40.7366 41.96 39.5232 40.6133 38.6166 38.88C37.7366 37.12 37.2966 35.1067 37.2966 32.84ZM54.7366 32.92C54.7366 31.56 54.4699 30.4 53.9366 29.44C53.4032 28.4533 52.6832 27.7067 51.7766 27.2C50.8699 26.6667 49.8966 26.4 48.8566 26.4C47.8166 26.4 46.8566 26.6533 45.9766 27.16C45.0966 27.6667 44.3766 28.4133 43.8166 29.4C43.2832 30.36 43.0166 31.5067 43.0166 32.84C43.0166 34.1733 43.2832 35.3467 43.8166 36.36C44.3766 37.3467 45.0966 38.1067 45.9766 38.64C46.8832 39.1733 47.8432 39.44 48.8566 39.44C49.8966 39.44 50.8699 39.1867 51.7766 38.68C52.6832 38.1467 53.4032 37.4 53.9366 36.44C54.4699 35.4533 54.7366 34.28 54.7366 32.92ZM78.9659 44L71.4459 34.56V44H65.8459V14.4H71.4459V31.24L78.8859 21.84H86.1659L76.4059 32.96L86.2459 44H78.9659ZM109.805 32.44C109.805 33.24 109.752 33.96 109.645 34.6H93.4453C93.5786 36.2 94.1386 37.4533 95.1253 38.36C96.112 39.2667 97.3253 39.72 98.7653 39.72C100.845 39.72 102.325 38.8267 103.205 37.04H109.245C108.605 39.1733 107.379 40.9333 105.565 42.32C103.752 43.68 101.525 44.36 98.8853 44.36C96.752 44.36 94.832 43.8933 93.1253 42.96C91.4453 42 90.1253 40.6533 89.1653 38.92C88.232 37.1867 87.7653 35.1867 87.7653 32.92C87.7653 30.6267 88.232 28.6133 89.1653 26.88C90.0986 25.1467 91.4053 23.8133 93.0853 22.88C94.7653 21.9467 96.6986 21.48 98.8853 21.48C100.992 21.48 102.872 21.9333 104.525 22.84C106.205 23.7467 107.499 25.04 108.405 26.72C109.339 28.3733 109.805 30.28 109.805 32.44ZM104.005 30.84C103.979 29.4 103.459 28.2533 102.445 27.4C101.432 26.52 100.192 26.08 98.7253 26.08C97.3386 26.08 96.1653 26.5067 95.2053 27.36C94.272 28.1867 93.6986 29.3467 93.4853 30.84H104.005ZM226.888 24.48C226.248 23.3067 225.368 22.4133 224.248 21.8C223.128 21.1867 221.821 20.88 220.328 20.88C218.674 20.88 217.208 21.2533 215.928 22C214.648 22.7467 213.648 23.8133 212.928 25.2C212.208 26.5867 211.848 28.1867 211.848 30C211.848 31.8667 212.208 33.4933 212.928 34.88C213.674 36.2667 214.701 37.3333 216.008 38.08C217.314 38.8267 218.834 39.2 220.568 39.2C222.701 39.2 224.448 38.64 225.807 37.52C227.168 36.3733 228.061 34.7867 228.488 32.76H218.888V28.48H234.008V33.36C233.634 35.3067 232.834 37.1067 231.608 38.76C230.381 40.4133 228.794 41.7467 226.848 42.76C224.928 43.7467 222.768 44.24 220.368 44.24C217.674 44.24 215.234 43.64 213.048 42.44C210.888 41.2133 209.181 39.52 207.928 37.36C206.701 35.2 206.088 32.7467 206.088 30C206.088 27.2533 206.701 24.8 207.928 22.64C209.181 20.4533 210.888 18.76 213.048 17.56C215.234 16.3333 217.661 15.72 220.328 15.72C223.474 15.72 226.208 16.4933 228.528 18.04C230.848 19.56 232.448 21.7067 233.328 24.48H226.888Z" fill="white"/>
<path d="M136.093 16.08L126.653 34.28V44H121.053V34.28L111.573 16.08H117.893L123.893 28.84L129.853 16.08H136.093ZM149.163 44.36C147.029 44.36 145.109 43.8933 143.403 42.96C141.696 42 140.349 40.6533 139.363 38.92C138.403 37.1867 137.923 35.1867 137.923 32.92C137.923 30.6533 138.416 28.6533 139.403 26.92C140.416 25.1867 141.789 23.8533 143.523 22.92C145.256 21.96 147.189 21.48 149.323 21.48C151.456 21.48 153.389 21.96 155.123 22.92C156.856 23.8533 158.216 25.1867 159.203 26.92C160.216 28.6533 160.723 30.6533 160.723 32.92C160.723 35.1867 160.203 37.1867 159.162 38.92C158.149 40.6533 156.763 42 155.003 42.96C153.269 43.8933 151.323 44.36 149.163 44.36ZM149.163 39.48C150.176 39.48 151.123 39.24 152.003 38.76C152.909 38.2533 153.629 37.5067 154.163 36.52C154.696 35.5333 154.963 34.3333 154.963 32.92C154.963 30.8133 154.403 29.2 153.283 28.08C152.189 26.9333 150.843 26.36 149.243 26.36C147.643 26.36 146.296 26.9333 145.203 28.08C144.136 29.2 143.603 30.8133 143.603 32.92C143.603 35.0267 144.123 36.6533 145.163 37.8C146.229 38.92 147.563 39.48 149.163 39.48ZM185.75 21.84V44H180.11V41.2C179.39 42.16 178.444 42.92 177.27 43.48C176.124 44.0133 174.87 44.28 173.51 44.28C171.777 44.28 170.244 43.92 168.91 43.2C167.577 42.4533 166.524 41.3733 165.75 39.96C165.004 38.52 164.63 36.8133 164.63 34.84V21.84H170.23V34.04C170.23 35.8 170.67 37.16 171.55 38.12C172.43 39.0533 173.63 39.52 175.15 39.52C176.697 39.52 177.91 39.0533 178.79 38.12C179.67 37.16 180.11 35.8 180.11 34.04V21.84H185.75ZM196.876 25.28C197.596 24.1067 198.529 23.1867 199.676 22.52C200.849 21.8533 202.182 21.52 203.676 21.52V27.4H202.196C200.436 27.4 199.102 27.8133 198.196 28.64C197.316 29.4667 196.876 30.9067 196.876 32.96V44H191.276V21.84H196.876V25.28Z" fill="#F7B538"/>
<path d="M33.2 16.08H34.2V15.08H33.2V16.08ZM33.2 44V45H34.2V44H33.2ZM27.6 44H26.6V45H27.6V44ZM27.6 25.84H28.6L26.6754 25.4591L27.6 25.84ZM20.12 44V45H20.7896L21.0446 44.3809L20.12 44ZM15.88 44L14.9561 44.3826L15.2118 45H15.88V44ZM8.36 25.84L9.28392 25.4574L7.36 25.84H8.36ZM8.36 44V45H9.36V44H8.36ZM2.76 44H1.76V45H2.76V44ZM2.76 16.08V15.08H1.76V16.08H2.76ZM9.12 16.08L10.0394 15.6867L9.7799 15.08H9.12V16.08ZM18 36.84L17.0806 37.2333L18 39.3827L18.9194 37.2333L18 36.84ZM26.88 16.08V15.08H26.2201L25.9606 15.6867L26.88 16.08ZM32.2 16.08V44H34.2V16.08H32.2ZM33.2 43H27.6V45H33.2V43ZM28.6 44V25.84H26.6V44H28.6ZM26.6754 25.4591L19.1954 43.6191L21.0446 44.3809L28.5246 26.2209L26.6754 25.4591ZM20.12 43H15.88V45H20.12V43ZM16.8039 43.6174L9.28392 25.4574L7.43608 26.2226L14.9561 44.3826L16.8039 43.6174ZM7.36 25.84V44H9.36V25.84H7.36ZM8.36 43H2.76V45H8.36V43ZM3.76 44V16.08H1.76V44H3.76ZM2.76 17.08H9.12V15.08H2.76V17.08ZM8.20058 16.4733L17.0806 37.2333L18.9194 36.4467L10.0394 15.6867L8.20058 16.4733ZM18.9194 37.2333L27.7994 16.4733L25.9606 15.6867L17.0806 36.4467L18.9194 37.2333ZM26.88 17.08H33.2V15.08H26.88V17.08ZM38.6166 26.88L37.7304 26.4165L37.7249 26.4273L38.6166 26.88ZM42.2566 22.88L41.7399 22.0238L41.7333 22.0278L42.2566 22.88ZM51.7366 22.48L51.259 23.3587L51.2669 23.3629L51.7366 22.48ZM54.7366 25L53.9315 25.5932L55.7366 28.0429V25H54.7366ZM54.7366 21.84V20.84H53.7366V21.84H54.7366ZM60.3766 21.84H61.3766V20.84H60.3766V21.84ZM60.3766 44V45H61.3766V44H60.3766ZM54.7366 44H53.7366V45H54.7366V44ZM54.7366 40.76H55.7366V37.5587L53.9144 40.1908L54.7366 40.76ZM51.7366 43.36L52.2062 44.2429L52.2128 44.2393L51.7366 43.36ZM42.2566 42.92L41.7226 43.7655L41.7292 43.7696L42.2566 42.92ZM38.6166 38.88L37.7221 39.3272L37.7262 39.3354L37.7305 39.3435L38.6166 38.88ZM53.9366 29.44L53.0568 29.9155L53.0624 29.9256L53.9366 29.44ZM51.7766 27.2L51.2695 28.0619L51.2791 28.0675L51.2887 28.0729L51.7766 27.2ZM45.9766 27.16L45.4776 26.2934H45.4776L45.9766 27.16ZM43.8166 29.4L42.9468 28.9064L42.9424 28.9144L43.8166 29.4ZM43.8166 36.36L42.9316 36.8257L42.939 36.8398L42.9469 36.8536L43.8166 36.36ZM45.9766 38.64L45.4582 39.4953L45.4695 39.5019L45.9766 38.64ZM51.7766 38.68L52.2644 39.5529L52.274 39.5475L52.2836 39.5419L51.7766 38.68ZM53.9366 36.44L54.8108 36.9257L54.8163 36.9155L53.9366 36.44ZM38.2966 32.84C38.2966 30.7333 38.7096 28.9058 39.5082 27.3327L37.7249 26.4273C36.7635 28.3209 36.2966 30.4667 36.2966 32.84H38.2966ZM39.5027 27.3435C40.334 25.7541 41.4283 24.5621 42.7798 23.7322L41.7333 22.0278C40.0449 23.0646 38.7124 24.5392 37.7305 26.4165L39.5027 27.3435ZM42.7732 23.7362C44.1563 22.9016 45.6962 22.48 47.4166 22.48V20.48C45.3503 20.48 43.4501 20.9918 41.7399 22.0238L42.7732 23.7362ZM47.4166 22.48C48.9338 22.48 50.2038 22.7851 51.2591 23.3586L52.2141 21.6014C50.816 20.8416 49.206 20.48 47.4166 20.48V22.48ZM51.2669 23.3629C52.4052 23.9683 53.2843 24.7149 53.9315 25.5932L55.5416 24.4068C54.6955 23.2585 53.5746 22.325 52.2062 21.5971L51.2669 23.3629ZM55.7366 25V21.84H53.7366V25H55.7366ZM54.7366 22.84H60.3766V20.84H54.7366V22.84ZM59.3766 21.84V44H61.3766V21.84H59.3766ZM60.3766 43H54.7366V45H60.3766V43ZM55.7366 44V40.76H53.7366V44H55.7366ZM53.9144 40.1908C53.2963 41.0835 52.4231 41.8508 51.2603 42.4807L52.2128 44.2393C53.61 43.4825 54.7368 42.5165 55.5588 41.3292L53.9144 40.1908ZM51.267 42.4771C50.1803 43.0551 48.8932 43.36 47.3766 43.36V45.36C49.1666 45.36 50.7861 44.9982 52.2062 44.2429L51.267 42.4771ZM47.3766 43.36C45.6913 43.36 44.1681 42.9295 42.7839 42.0704L41.7292 43.7696C43.4384 44.8305 45.3285 45.36 47.3766 45.36V43.36ZM42.7906 42.0745C41.4325 41.2168 40.3351 40.0079 39.5027 38.4165L37.7305 39.3435C38.7114 41.2188 40.0406 42.7032 41.7226 43.7655L42.7906 42.0745ZM39.511 38.4328C38.7103 36.8313 38.2966 34.9751 38.2966 32.84H36.2966C36.2966 35.2383 36.7629 37.4087 37.7221 39.3272L39.511 38.4328ZM55.7366 32.92C55.7366 31.4301 55.4441 30.0944 54.8107 28.9544L53.0624 29.9256C53.4957 30.7056 53.7366 31.6899 53.7366 32.92H55.7366ZM54.8163 28.9645C54.2002 27.8247 53.35 26.9337 52.2644 26.3271L51.2887 28.0729C52.0164 28.4796 52.6063 29.0819 53.0569 29.9155L54.8163 28.9645ZM52.2836 26.3381C51.2251 25.7154 50.077 25.4 48.8566 25.4V27.4C49.7161 27.4 50.5147 27.6179 51.2695 28.0619L52.2836 26.3381ZM48.8566 25.4C47.6459 25.4 46.5132 25.6971 45.4776 26.2934L46.4755 28.0266C47.2 27.6095 47.9873 27.4 48.8566 27.4V25.4ZM45.4776 26.2934C44.4254 26.8992 43.5844 27.7832 42.9469 28.9064L44.6862 29.8936C45.1688 29.0435 45.7677 28.4341 46.4755 28.0266L45.4776 26.2934ZM42.9424 28.9144C42.3106 30.0516 42.0166 31.3729 42.0166 32.84H44.0166C44.0166 31.6404 44.2559 30.6684 44.6907 29.8856L42.9424 28.9144ZM42.0166 32.84C42.0166 34.3089 42.3112 35.6469 42.9316 36.8257L44.7015 35.8943C44.2553 35.0465 44.0166 34.0378 44.0166 32.84H42.0166ZM42.9469 36.8536C43.5823 37.9732 44.4176 38.8645 45.4583 39.4952L46.4949 37.7848C45.7756 37.3489 45.1708 36.7201 44.6862 35.8664L42.9469 36.8536ZM45.4695 39.5019C46.5238 40.1221 47.658 40.44 48.8566 40.44V38.44C48.0285 38.44 47.2427 38.2246 46.4836 37.7781L45.4695 39.5019ZM48.8566 40.44C50.0671 40.44 51.2084 40.143 52.2644 39.5529L51.2887 37.8071C50.5314 38.2303 49.726 38.44 48.8566 38.44V40.44ZM52.2836 39.5419C53.3509 38.9141 54.1947 38.0344 54.8107 36.9256L53.0624 35.9544C52.6117 36.7656 52.0155 37.3792 51.2695 37.8181L52.2836 39.5419ZM54.8163 36.9155C55.4437 35.7548 55.7366 34.411 55.7366 32.92H53.7366C53.7366 34.149 53.4961 35.1519 53.0569 35.9645L54.8163 36.9155ZM78.9659 44L78.1838 44.6231L78.484 45H78.9659V44ZM71.4459 34.56L72.2281 33.9369L70.4459 31.6997V34.56H71.4459ZM71.4459 44V45H72.4459V44H71.4459ZM65.8459 44H64.8459V45H65.8459V44ZM65.8459 14.4V13.4H64.8459V14.4H65.8459ZM71.4459 14.4H72.4459V13.4H71.4459V14.4ZM71.4459 31.24H70.4459V34.1147L72.23 31.8606L71.4459 31.24ZM78.8859 21.84V20.84H78.4021L78.1018 21.2194L78.8859 21.84ZM86.1659 21.84L86.9175 22.4997L88.3742 20.84H86.1659V21.84ZM76.4059 32.96L75.6544 32.3003L75.0709 32.9651L75.6594 33.6254L76.4059 32.96ZM86.2459 44V45H88.4768L86.9925 43.3346L86.2459 44ZM79.7481 43.3769L72.2281 33.9369L70.6638 35.1831L78.1838 44.6231L79.7481 43.3769ZM70.4459 34.56V44H72.4459V34.56H70.4459ZM71.4459 43H65.8459V45H71.4459V43ZM66.8459 44V14.4H64.8459V44H66.8459ZM65.8459 15.4H71.4459V13.4H65.8459V15.4ZM70.4459 14.4V31.24H72.4459V14.4H70.4459ZM72.23 31.8606L79.6701 22.4606L78.1018 21.2194L70.6618 30.6194L72.23 31.8606ZM78.8859 22.84H86.1659V20.84H78.8859V22.84ZM85.4144 21.1803L75.6544 32.3003L77.1575 33.6197L86.9175 22.4997L85.4144 21.1803ZM75.6594 33.6254L85.4994 44.6654L86.9925 43.3346L77.1525 32.2946L75.6594 33.6254ZM86.2459 43H78.9659V45H86.2459V43ZM109.645 34.6V35.6H110.492L110.632 34.7644L109.645 34.6ZM93.4453 34.6V33.6H92.3585L92.4488 34.683L93.4453 34.6ZM95.1253 38.36L94.4487 39.0963L95.1253 38.36ZM103.205 37.04V36.04H102.583L102.308 36.5981L103.205 37.04ZM109.245 37.04L110.203 37.3273L110.589 36.04H109.245V37.04ZM105.565 42.32L106.165 43.12L106.173 43.1144L105.565 42.32ZM93.1253 42.96L92.6292 43.8282L92.6373 43.8329L92.6455 43.8374L93.1253 42.96ZM89.1653 38.92L88.2848 39.3941L88.2905 39.4045L89.1653 38.92ZM89.1653 26.88L88.2848 26.4059L89.1653 26.88ZM93.0853 22.88L93.571 23.7542L93.0853 22.88ZM104.525 22.84L104.044 23.7168L104.05 23.72L104.525 22.84ZM108.405 26.72L107.525 27.1949L107.53 27.2033L107.534 27.2116L108.405 26.72ZM104.005 30.84V31.84H105.024L105.005 30.8215L104.005 30.84ZM102.445 27.4L101.79 28.155L101.795 28.16L101.801 28.1649L102.445 27.4ZM95.2053 27.36L95.8683 28.1086L95.8697 28.1074L95.2053 27.36ZM93.4853 30.84L92.4954 30.6986L92.3323 31.84H93.4853V30.84ZM108.805 32.44C108.805 33.1971 108.755 33.8607 108.659 34.4356L110.632 34.7644C110.749 34.0593 110.805 33.2829 110.805 32.44H108.805ZM109.645 33.6H93.4453V35.6H109.645V33.6ZM92.4488 34.683C92.5986 36.4808 93.2417 37.9872 94.4487 39.0963L95.8019 37.6237C95.0355 36.9194 94.5587 35.9192 94.4419 34.517L92.4488 34.683ZM94.4487 39.0963C95.6344 40.1859 97.0951 40.72 98.7653 40.72V38.72C97.5555 38.72 96.5896 38.3474 95.8019 37.6237L94.4487 39.0963ZM98.7653 40.72C99.9503 40.72 101.027 40.4644 101.952 39.9061C102.88 39.3463 103.591 38.5201 104.102 37.4818L102.308 36.5981C101.94 37.3466 101.471 37.8604 100.919 38.1939C100.364 38.5289 99.6603 38.72 98.7653 38.72V40.72ZM103.205 38.04H109.245V36.04H103.205V38.04ZM108.287 36.7527C107.71 38.679 106.608 40.2635 104.958 41.5256L106.173 43.1144C108.149 41.6032 109.501 39.6677 110.203 37.3273L108.287 36.7527ZM104.965 41.52C103.353 42.7296 101.346 43.36 98.8853 43.36V45.36C101.705 45.36 104.151 44.6304 106.165 43.12L104.965 41.52ZM98.8853 43.36C96.9031 43.36 95.1508 42.9279 93.6051 42.0826L92.6455 43.8374C94.5132 44.8588 96.6009 45.36 98.8853 45.36V43.36ZM93.6215 42.0918C92.1044 41.2249 90.9136 40.0127 90.0401 38.4355L88.2905 39.4045C89.337 41.294 90.7862 42.7751 92.6292 43.8282L93.6215 42.0918ZM90.0458 38.4459C89.2021 36.879 88.7653 35.0464 88.7653 32.92H86.7653C86.7653 35.3269 87.2619 37.4943 88.2848 39.3941L90.0458 38.4459ZM88.7653 32.92C88.7653 30.7647 89.2029 28.9194 90.0458 27.3541L88.2848 26.4059C87.261 28.3073 86.7653 30.4886 86.7653 32.92H88.7653ZM90.0458 27.3541C90.8908 25.7848 92.0624 24.5923 93.571 23.7542L92.5997 22.0058C90.7483 23.0344 89.3065 24.5085 88.2848 26.4059L90.0458 27.3541ZM93.571 23.7542C95.0829 22.9142 96.8448 22.48 98.8853 22.48V20.48C96.5524 20.48 94.4477 20.9792 92.5997 22.0058L93.571 23.7542ZM98.8853 22.48C100.844 22.48 102.555 22.9001 104.044 23.7168L105.006 21.9632C103.189 20.9666 101.14 20.48 98.8853 20.48V22.48ZM104.05 23.72C105.559 24.5341 106.711 25.6866 107.525 27.1949L109.285 26.2451C108.286 24.3934 106.852 22.9593 105 21.96L104.05 23.72ZM107.534 27.2116C108.372 28.6953 108.805 30.4282 108.805 32.44H110.805C110.805 30.1318 110.305 28.0514 109.276 26.2284L107.534 27.2116ZM105.005 30.8215C104.974 29.1214 104.344 27.6918 103.089 26.6351L101.801 28.1649C102.573 28.8149 102.984 29.6786 103.005 30.8585L105.005 30.8215ZM103.101 26.645C101.888 25.5919 100.409 25.08 98.7253 25.08V27.08C99.9751 27.08 100.976 27.4481 101.79 28.155L103.101 26.645ZM98.7253 25.08C97.1149 25.08 95.6992 25.583 94.5409 26.6126L95.8697 28.1074C96.6314 27.4303 97.5624 27.08 98.7253 27.08V25.08ZM94.5423 26.6114C93.3961 27.6266 92.7349 29.0219 92.4954 30.6986L94.4753 30.9814C94.6624 29.6715 95.1478 28.7467 95.8683 28.1086L94.5423 26.6114ZM93.4853 31.84H104.005V29.84H93.4853V31.84ZM136.093 16.08L136.981 16.5404L137.738 15.08H136.093V16.08ZM126.653 34.28L125.765 33.8196L125.653 34.0361V34.28H126.653ZM126.653 44V45H127.653V44H126.653ZM121.053 44H120.053V45H121.053V44ZM121.053 34.28H122.053V34.0352L121.94 33.818L121.053 34.28ZM111.573 16.08V15.08H109.924L110.686 16.542L111.573 16.08ZM117.893 16.08L118.798 15.6545L118.528 15.08H117.893V16.08ZM123.893 28.84L122.988 29.2655L123.896 31.1965L124.799 29.2632L123.893 28.84ZM129.853 16.08V15.08H129.216L128.947 15.6568L129.853 16.08ZM135.205 15.6196L125.765 33.8196L127.541 34.7404L136.981 16.5404L135.205 15.6196ZM125.653 34.28V44H127.653V34.28H125.653ZM126.653 43H121.053V45H126.653V43ZM122.053 44V34.28H120.053V44H122.053ZM121.94 33.818L112.46 15.618L110.686 16.542L120.166 34.742L121.94 33.818ZM111.573 17.08H117.893V15.08H111.573V17.08ZM116.988 16.5055L122.988 29.2655L124.798 28.4145L118.798 15.6545L116.988 16.5055ZM124.799 29.2632L130.759 16.5032L128.947 15.6568L122.987 28.4168L124.799 29.2632ZM129.853 17.08H136.093V15.08H129.853V17.08ZM143.402 42.96L142.912 43.8316L142.923 43.8374L143.402 42.96ZM139.363 38.92L138.488 39.4045L138.493 39.4147L139.363 38.92ZM139.402 26.92L138.539 26.4153L138.533 26.4253L139.402 26.92ZM143.523 22.92L143.997 23.8005L144.007 23.7948L143.523 22.92ZM155.122 22.92L154.638 23.7949L154.648 23.8005L155.122 22.92ZM159.202 26.92L158.333 27.4147L158.339 27.4247L159.202 26.92ZM159.163 38.92L158.305 38.4055L158.299 38.4153L159.163 38.92ZM155.003 42.96L155.477 43.8405L155.481 43.8379L155.003 42.96ZM152.003 38.76L152.481 39.6379L152.49 39.6329L152.003 38.76ZM154.163 36.52L155.042 36.9955L154.163 36.52ZM153.283 28.08L152.559 28.7701L152.567 28.7787L152.575 28.7871L153.283 28.08ZM145.202 28.08L144.479 27.3899L144.478 27.3903L145.202 28.08ZM145.163 37.8L144.422 38.4718L144.43 38.4808L144.438 38.4897L145.163 37.8ZM149.163 43.36C147.18 43.36 145.428 42.9279 143.882 42.0826L142.923 43.8374C144.79 44.8588 146.878 45.36 149.163 45.36V43.36ZM143.893 42.0884C142.347 41.2191 141.13 40.0041 140.232 38.4253L138.493 39.4147C139.568 41.3026 141.044 42.7809 142.912 43.8316L143.893 42.0884ZM140.237 38.4355C139.371 36.8706 138.923 35.0419 138.923 32.92H136.923C136.923 35.3315 137.434 37.5027 138.488 39.4045L140.237 38.4355ZM138.923 32.92C138.923 30.8027 139.382 28.9777 140.272 27.4147L138.533 26.4253C137.45 28.329 136.923 30.5039 136.923 32.92H138.923ZM140.266 27.4247C141.188 25.8467 142.428 24.6449 143.997 23.8005L143.048 22.0395C141.15 23.0618 139.643 24.5267 138.539 26.4153L140.266 27.4247ZM144.007 23.7948C145.581 22.9232 147.345 22.48 149.322 22.48V20.48C147.033 20.48 144.931 20.9968 143.038 22.0452L144.007 23.7948ZM149.322 22.48C151.3 22.48 153.064 22.9232 154.638 23.7948L155.607 22.0452C153.714 20.9968 151.612 20.48 149.322 20.48V22.48ZM154.648 23.8005C156.214 24.6436 157.438 25.8422 158.333 27.4147L160.072 26.4253C158.993 24.5311 157.497 23.0631 155.597 22.0395L154.648 23.8005ZM158.339 27.4247C159.252 28.9859 159.723 30.8074 159.723 32.92H161.723C161.723 30.4993 161.18 28.3207 160.066 26.4153L158.339 27.4247ZM159.723 32.92C159.723 35.028 159.241 36.8458 158.305 38.4055L160.02 39.4345C161.164 37.5275 161.723 35.3454 161.723 32.92H159.723ZM158.299 38.4153C157.378 39.9918 156.124 41.2094 154.524 42.0821L155.481 43.8379C157.401 42.7906 158.921 41.3148 160.026 39.4247L158.299 38.4153ZM154.528 42.0795C152.955 42.927 151.173 43.36 149.163 43.36V45.36C151.472 45.36 153.584 44.8597 155.477 43.8405L154.528 42.0795ZM149.163 40.48C150.341 40.48 151.453 40.1989 152.481 39.6379L151.524 37.8821C150.792 38.2811 150.01 38.48 149.163 38.48V40.48ZM152.49 39.6329C153.576 39.0263 154.426 38.1353 155.042 36.9955L153.283 36.0445C152.832 36.8781 152.242 37.4804 151.515 37.8871L152.49 39.6329ZM155.042 36.9955C155.672 35.8296 155.962 34.457 155.962 32.92H153.962C153.962 34.2096 153.719 35.2371 153.283 36.0445L155.042 36.9955ZM155.962 32.92C155.962 30.6386 155.353 28.736 153.99 27.3729L152.575 28.7871C153.452 29.664 153.962 30.988 153.962 32.92H155.962ZM154.006 27.3899C152.722 26.0431 151.113 25.36 149.242 25.36V27.36C150.572 27.36 151.656 27.8235 152.559 28.7701L154.006 27.3899ZM149.242 25.36C147.372 25.36 145.763 26.0431 144.479 27.3899L145.926 28.7701C146.829 27.8235 147.913 27.36 149.242 27.36V25.36ZM144.478 27.3903C143.179 28.7551 142.602 30.6512 142.602 32.92H144.602C144.602 30.9755 145.093 29.6449 145.927 28.7697L144.478 27.3903ZM142.602 32.92C142.602 35.1844 143.163 37.0836 144.422 38.4718L145.903 37.1282C145.082 36.2231 144.602 34.8689 144.602 32.92H142.602ZM144.438 38.4897C145.701 39.8154 147.299 40.48 149.163 40.48V38.48C147.826 38.48 146.757 38.0246 145.887 37.1103L144.438 38.4897ZM185.75 21.84H186.75V20.84H185.75V21.84ZM185.75 44V45H186.75V44H185.75ZM180.11 44H179.11V45H180.11V44ZM180.11 41.2H181.11V38.2L179.31 40.6L180.11 41.2ZM177.27 43.48L177.692 44.3868L177.701 44.3825L177.27 43.48ZM168.91 43.2L168.422 44.0725L168.428 44.0763L168.435 44.0799L168.91 43.2ZM165.75 39.96L164.863 40.4203L164.868 40.4302L164.873 40.44L165.75 39.96ZM164.63 21.84V20.84H163.63V21.84H164.63ZM170.23 21.84H171.23V20.84H170.23V21.84ZM171.55 38.12L170.813 38.7958L170.823 38.806L171.55 38.12ZM178.79 38.12L179.518 38.8061L179.527 38.7957L178.79 38.12ZM180.11 21.84V20.84H179.11V21.84H180.11ZM184.75 21.84V44H186.75V21.84H184.75ZM185.75 43H180.11V45H185.75V43ZM181.11 44V41.2H179.11V44H181.11ZM179.31 40.6C178.695 41.4202 177.88 42.0811 176.84 42.5775L177.701 44.3825C179.008 43.7589 180.085 42.8997 180.91 41.8L179.31 40.6ZM176.849 42.5733C175.844 43.0406 174.736 43.28 173.51 43.28V45.28C175.005 45.28 176.404 44.986 177.692 44.3867L176.849 42.5733ZM173.51 43.28C171.919 43.28 170.553 42.9506 169.385 42.3201L168.435 44.0799C169.934 44.8894 171.635 45.28 173.51 45.28V43.28ZM169.399 42.3275C168.238 41.6777 167.316 40.738 166.628 39.48L164.873 40.44C165.731 42.0087 166.915 43.229 168.422 44.0725L169.399 42.3275ZM166.638 39.4997C165.979 38.2295 165.63 36.6874 165.63 34.84H163.63C163.63 36.9393 164.028 38.8105 164.863 40.4203L166.638 39.4997ZM165.63 34.84V21.84H163.63V34.84H165.63ZM164.63 22.84H170.23V20.84H164.63V22.84ZM169.23 21.84V34.04H171.23V21.84H169.23ZM169.23 34.04C169.23 35.961 169.712 37.5947 170.813 38.7957L172.287 37.4443C171.628 36.7253 171.23 35.639 171.23 34.04H169.23ZM170.823 38.806C171.926 39.9767 173.41 40.52 175.15 40.52V38.52C173.85 38.52 172.934 38.13 172.278 37.434L170.823 38.806ZM175.15 40.52C176.911 40.52 178.411 39.9803 179.518 38.806L178.063 37.434C177.41 38.1264 176.483 38.52 175.15 38.52V40.52ZM179.527 38.7957C180.628 37.5947 181.11 35.961 181.11 34.04H179.11C179.11 35.639 178.712 36.7253 178.053 37.4443L179.527 38.7957ZM181.11 34.04V21.84H179.11V34.04H181.11ZM180.11 22.84H185.75V20.84H180.11V22.84ZM196.876 25.28H195.876V28.8216L197.728 25.803L196.876 25.28ZM199.676 22.52L199.182 21.6505L199.173 21.6555L199.676 22.52ZM203.676 21.52H204.676V20.52H203.676V21.52ZM203.676 27.4V28.4H204.676V27.4H203.676ZM198.196 28.64L197.522 27.901L197.516 27.9061L197.511 27.9112L198.196 28.64ZM196.876 44V45H197.876V44H196.876ZM191.276 44H190.276V45H191.276V44ZM191.276 21.84V20.84H190.276V21.84H191.276ZM196.876 21.84H197.876V20.84H196.876V21.84ZM197.728 25.803C198.365 24.7651 199.18 23.9648 200.178 23.3845L199.173 21.6555C197.878 22.4085 196.826 23.4482 196.023 24.757L197.728 25.803ZM200.17 23.3895C201.177 22.8172 202.337 22.52 203.676 22.52V20.52C202.028 20.52 200.521 20.8894 199.182 21.6505L200.17 23.3895ZM202.676 21.52V27.4H204.676V21.52H202.676ZM203.676 26.4H202.196V28.4H203.676V26.4ZM202.196 26.4C200.294 26.4 198.679 26.8459 197.522 27.901L198.869 29.379C199.525 28.7808 200.577 28.4 202.196 28.4V26.4ZM197.511 27.9112C196.327 29.0234 195.876 30.8136 195.876 32.96H197.876C197.876 30.9997 198.304 29.9099 198.88 29.3688L197.511 27.9112ZM195.876 32.96V44H197.876V32.96H195.876ZM196.876 43H191.276V45H196.876V43ZM192.276 44V21.84H190.276V44H192.276ZM191.276 22.84H196.876V20.84H191.276V22.84ZM195.876 21.84V25.28H197.876V21.84H195.876ZM226.887 24.48L226.01 24.9589L226.294 25.48H226.887V24.48ZM212.928 25.2L212.04 24.7392L212.928 25.2ZM212.928 34.88L212.04 35.3408L212.043 35.3475L212.047 35.3541L212.928 34.88ZM216.008 38.08L215.511 38.9482L216.008 38.08ZM225.807 37.52L226.443 38.292L226.452 38.2845L225.807 37.52ZM228.488 32.76L229.466 32.966L229.72 31.76H228.488V32.76ZM218.887 32.76H217.887V33.76H218.887V32.76ZM218.887 28.48V27.48H217.887V28.48H218.887ZM234.008 28.48H235.008V27.48H234.008V28.48ZM234.008 33.36L234.99 33.5483L235.008 33.455V33.36H234.008ZM231.607 38.76L230.804 38.1642L231.607 38.76ZM226.848 42.76L227.305 43.6494L227.309 43.647L226.848 42.76ZM213.048 42.44L212.554 43.3096L212.56 43.3132L212.566 43.3167L213.048 42.44ZM207.928 37.36L207.058 37.8538L207.063 37.8619L207.928 37.36ZM207.928 22.64L207.06 22.1427L207.058 22.1462L207.928 22.64ZM213.048 17.56L213.533 18.4342L213.537 18.4321L213.048 17.56ZM228.527 18.04L227.973 18.8721L227.979 18.8765L228.527 18.04ZM233.327 24.48V25.48H234.694L234.281 24.1776L233.327 24.48ZM227.765 24.0011C227.038 22.668 226.024 21.6326 224.728 20.9229L223.767 22.6771C224.711 23.1941 225.457 23.9453 226.01 24.9589L227.765 24.0011ZM224.728 20.9229C223.437 20.2162 221.96 19.88 220.327 19.88V21.88C221.682 21.88 222.818 22.1571 223.767 22.6771L224.728 20.9229ZM220.327 19.88C218.518 19.88 216.874 20.2903 215.424 21.1362L216.431 22.8638C217.541 22.2163 218.83 21.88 220.327 21.88V19.88ZM215.424 21.1362C213.971 21.9835 212.842 23.1942 212.04 24.7392L213.815 25.6608C214.453 24.4325 215.324 23.5098 216.431 22.8638L215.424 21.1362ZM212.04 24.7392C211.235 26.2895 210.848 28.0521 210.848 30H212.848C212.848 28.3212 213.18 26.8838 213.815 25.6608L212.04 24.7392ZM210.848 30C210.848 31.996 211.233 33.7866 212.04 35.3408L213.815 34.4192C213.182 33.2001 212.848 31.7373 212.848 30H210.848ZM212.047 35.3541C212.878 36.8975 214.034 38.1043 215.511 38.9482L216.504 37.2118C215.367 36.5624 214.47 35.6358 213.808 34.4059L212.047 35.3541ZM215.511 38.9482C216.991 39.7936 218.687 40.2 220.568 40.2V38.2C218.981 38.2 217.638 37.8597 216.504 37.2118L215.511 38.9482ZM220.568 40.2C222.882 40.2 224.869 39.5887 226.443 38.2919L225.172 36.7481C224.026 37.6913 222.52 38.2 220.568 38.2V40.2ZM226.452 38.2845C228.01 36.9713 229.001 35.1735 229.466 32.966L227.509 32.554C227.12 34.3998 226.325 35.7754 225.163 36.7555L226.452 38.2845ZM228.488 31.76H218.887V33.76H228.488V31.76ZM219.887 32.76V28.48H217.887V32.76H219.887ZM218.887 29.48H234.008V27.48H218.887V29.48ZM233.008 28.48V33.36H235.008V28.48H233.008ZM233.025 33.1716C232.681 34.965 231.945 36.6267 230.804 38.1642L232.411 39.3558C233.723 37.5866 234.587 35.6483 234.99 33.5483L233.025 33.1716ZM230.804 38.1642C229.674 39.6879 228.207 40.9249 226.386 41.873L227.309 43.647C229.381 42.5685 231.088 41.1388 232.411 39.3558L230.804 38.1642ZM226.39 41.8706C224.627 42.7768 222.627 43.24 220.368 43.24V45.24C222.908 45.24 225.228 44.7166 227.305 43.6494L226.39 41.8706ZM220.368 43.24C217.829 43.24 215.556 42.676 213.529 41.5633L212.566 43.3167C214.912 44.604 217.52 45.24 220.368 45.24V43.24ZM213.541 41.5704C211.536 40.4318 209.957 38.8657 208.792 36.8581L207.063 37.8619C208.404 40.1743 210.239 41.9949 212.554 43.3096L213.541 41.5704ZM208.797 36.8662C207.665 34.8722 207.087 32.5923 207.087 30H205.087C205.087 32.901 205.737 35.5278 207.058 37.8538L208.797 36.8662ZM207.087 30C207.087 27.4077 207.665 25.1278 208.797 23.1338L207.058 22.1462C205.737 24.4722 205.087 27.099 205.087 30H207.087ZM208.795 23.1373C209.96 21.1054 211.536 19.5438 213.533 18.4342L212.562 16.6858C210.239 17.9762 208.402 19.8013 207.06 22.1427L208.795 23.1373ZM213.537 18.4321C215.564 17.2947 217.821 16.72 220.327 16.72V14.72C217.501 14.72 214.904 15.372 212.558 16.6879L213.537 18.4321ZM220.327 16.72C223.303 16.72 225.838 17.4486 227.973 18.872L229.082 17.2079C226.577 15.5381 223.645 14.72 220.327 14.72V16.72ZM227.979 18.8765C230.097 20.2638 231.56 22.2168 232.374 24.7824L234.281 24.1776C233.335 21.1965 231.598 18.8562 229.076 17.2035L227.979 18.8765ZM233.327 23.48H226.887V25.48H233.327V23.48Z" fill="black"/>
<path d="M236.5 27.3579L236.5 27.3578C236.504 23.9567 237.922 20.691 240.451 18.2786C242.98 15.8655 246.414 14.5042 250 14.5C253.586 14.5042 257.02 15.8655 259.549 18.2786C262.078 20.691 263.496 23.9567 263.5 27.3578V27.3579C263.504 30.135 262.554 32.8395 260.79 35.0565L260.737 35.123L260.736 35.1257L260.729 35.1343L260.592 35.3051C260.54 35.3687 260.488 35.4339 260.445 35.487L260.389 35.5547L260.371 35.5769L260.365 35.5837C260.364 35.5855 260.363 35.5861 260.363 35.586L250 47.2473L239.638 35.5881L239.636 35.5858C239.636 35.5858 239.634 35.5838 239.63 35.5788L239.612 35.5572C239.597 35.5392 239.578 35.5162 239.556 35.4895C239.513 35.4361 239.46 35.3708 239.409 35.3068C239.358 35.243 239.308 35.1813 239.272 35.1355L239.228 35.0805L239.216 35.0653L239.213 35.0613L239.212 35.0603L239.212 35.0601L239.212 35.0601L239.212 35.0601C237.447 32.8421 236.496 30.1363 236.5 27.3579ZM255.591 27.3578V27.3571C255.591 26.2922 255.26 25.2533 254.642 24.3718C254.025 23.4907 253.151 22.8074 252.132 22.4047C251.113 22.0021 249.994 21.8971 248.914 22.1021C247.834 22.3071 246.838 22.8135 246.055 23.5609C245.272 24.3084 244.735 25.2638 244.517 26.3075C244.3 27.3514 244.412 28.4332 244.838 29.415C245.264 30.3965 245.984 31.2315 246.903 31.8173C247.822 32.403 248.899 32.7143 250 32.7143H250.001C251.475 32.7125 252.894 32.153 253.943 31.1516C254.993 30.1495 255.589 28.7857 255.591 27.3578Z" fill="#DEA232" stroke="black"/>
<path d="M35.2 16.08V44H29.6V25.84L22.12 44H17.88L10.36 25.84V44H4.76V16.08H11.12L20 36.84L28.88 16.08H35.2ZM39.2966 32.84C39.2966 30.6 39.7366 28.6133 40.6166 26.88C41.5232 25.1467 42.7366 23.8133 44.2566 22.88C45.8032 21.9467 47.5232 21.48 49.4166 21.48C51.0699 21.48 52.5099 21.8133 53.7366 22.48C54.9899 23.1467 55.9899 23.9867 56.7366 25V21.84H62.3766V44H56.7366V40.76C56.0166 41.8 55.0166 42.6667 53.7366 43.36C52.4832 44.0267 51.0299 44.36 49.3766 44.36C47.5099 44.36 45.8032 43.88 44.2566 42.92C42.7366 41.96 41.5232 40.6133 40.6166 38.88C39.7366 37.12 39.2966 35.1067 39.2966 32.84ZM56.7366 32.92C56.7366 31.56 56.4699 30.4 55.9366 29.44C55.4032 28.4533 54.6832 27.7067 53.7766 27.2C52.8699 26.6667 51.8966 26.4 50.8566 26.4C49.8166 26.4 48.8566 26.6533 47.9766 27.16C47.0966 27.6667 46.3766 28.4133 45.8166 29.4C45.2832 30.36 45.0166 31.5067 45.0166 32.84C45.0166 34.1733 45.2832 35.3467 45.8166 36.36C46.3766 37.3467 47.0966 38.1067 47.9766 38.64C48.8832 39.1733 49.8432 39.44 50.8566 39.44C51.8966 39.44 52.8699 39.1867 53.7766 38.68C54.6832 38.1467 55.4032 37.4 55.9366 36.44C56.4699 35.4533 56.7366 34.28 56.7366 32.92ZM80.9659 44L73.4459 34.56V44H67.8459V14.4H73.4459V31.24L80.8859 21.84H88.1659L78.4059 32.96L88.2459 44H80.9659ZM111.805 32.44C111.805 33.24 111.752 33.96 111.645 34.6H95.4453C95.5786 36.2 96.1386 37.4533 97.1253 38.36C98.112 39.2667 99.3253 39.72 100.765 39.72C102.845 39.72 104.325 38.8267 105.205 37.04H111.245C110.605 39.1733 109.379 40.9333 107.565 42.32C105.752 43.68 103.525 44.36 100.885 44.36C98.752 44.36 96.832 43.8933 95.1253 42.96C93.4453 42 92.1253 40.6533 91.1653 38.92C90.232 37.1867 89.7653 35.1867 89.7653 32.92C89.7653 30.6267 90.232 28.6133 91.1653 26.88C92.0986 25.1467 93.4053 23.8133 95.0853 22.88C96.7653 21.9467 98.6986 21.48 100.885 21.48C102.992 21.48 104.872 21.9333 106.525 22.84C108.205 23.7467 109.499 25.04 110.405 26.72C111.339 28.3733 111.805 30.28 111.805 32.44ZM106.005 30.84C105.979 29.4 105.459 28.2533 104.445 27.4C103.432 26.52 102.192 26.08 100.725 26.08C99.3386 26.08 98.1653 26.5067 97.2053 27.36C96.272 28.1867 95.6986 29.3467 95.4853 30.84H106.005Z" fill="#DEA232"/>
<path d="M137.96 16.08L128.52 34.28V44H122.92V34.28L113.44 16.08H119.76L125.76 28.84L131.72 16.08H137.96ZM151.03 44.36C148.896 44.36 146.976 43.8933 145.27 42.96C143.563 42 142.216 40.6533 141.23 38.92C140.27 37.1867 139.79 35.1867 139.79 32.92C139.79 30.6533 140.283 28.6533 141.27 26.92C142.283 25.1867 143.656 23.8533 145.39 22.92C147.123 21.96 149.056 21.48 151.19 21.48C153.323 21.48 155.256 21.96 156.99 22.92C158.723 23.8533 160.083 25.1867 161.07 26.92C162.083 28.6533 162.59 30.6533 162.59 32.92C162.59 35.1867 162.07 37.1867 161.03 38.92C160.016 40.6533 158.63 42 156.87 42.96C155.136 43.8933 153.19 44.36 151.03 44.36ZM151.03 39.48C152.043 39.48 152.99 39.24 153.87 38.76C154.776 38.2533 155.496 37.5067 156.03 36.52C156.563 35.5333 156.83 34.3333 156.83 32.92C156.83 30.8133 156.27 29.2 155.15 28.08C154.056 26.9333 152.71 26.36 151.11 26.36C149.51 26.36 148.163 26.9333 147.07 28.08C146.003 29.2 145.47 30.8133 145.47 32.92C145.47 35.0267 145.99 36.6533 147.03 37.8C148.096 38.92 149.43 39.48 151.03 39.48ZM187.618 21.84V44H181.978V41.2C181.258 42.16 180.311 42.92 179.138 43.48C177.991 44.0133 176.738 44.28 175.378 44.28C173.644 44.28 172.111 43.92 170.778 43.2C169.444 42.4533 168.391 41.3733 167.618 39.96C166.871 38.52 166.498 36.8133 166.498 34.84V21.84H172.098V34.04C172.098 35.8 172.538 37.16 173.418 38.12C174.298 39.0533 175.498 39.52 177.018 39.52C178.564 39.52 179.778 39.0533 180.658 38.12C181.538 37.16 181.978 35.8 181.978 34.04V21.84H187.618ZM198.743 25.28C199.463 24.1067 200.396 23.1867 201.543 22.52C202.716 21.8533 204.049 21.52 205.543 21.52V27.4H204.063C202.303 27.4 200.969 27.8133 200.063 28.64C199.183 29.4667 198.743 30.9067 198.743 32.96V44H193.143V21.84H198.743V25.28Z" fill="white"/>
<path d="M229.2 24.48C228.56 23.3067 227.68 22.4133 226.56 21.8C225.44 21.1867 224.133 20.88 222.64 20.88C220.987 20.88 219.52 21.2533 218.24 22C216.96 22.7467 215.96 23.8133 215.24 25.2C214.52 26.5867 214.16 28.1867 214.16 30C214.16 31.8667 214.52 33.4933 215.24 34.88C215.987 36.2667 217.013 37.3333 218.32 38.08C219.627 38.8267 221.147 39.2 222.88 39.2C225.013 39.2 226.76 38.64 228.12 37.52C229.48 36.3733 230.373 34.7867 230.8 32.76H221.2V28.48H236.32V33.36C235.947 35.3067 235.147 37.1067 233.92 38.76C232.693 40.4133 231.107 41.7467 229.16 42.76C227.24 43.7467 225.08 44.24 222.68 44.24C219.987 44.24 217.547 43.64 215.36 42.44C213.2 41.2133 211.493 39.52 210.24 37.36C209.013 35.2 208.4 32.7467 208.4 30C208.4 27.2533 209.013 24.8 210.24 22.64C211.493 20.4533 213.2 18.76 215.36 17.56C217.547 16.3333 219.973 15.72 222.64 15.72C225.787 15.72 228.52 16.4933 230.84 18.04C233.16 19.56 234.76 21.7067 235.64 24.48H229.2Z" fill="#DEA232"/>
</svg>
